<?xml version="1.0" encoding="UTF-8" standalone="no"?>
<!DOCTYPE svg PUBLIC "-//W3C//DTD SVG 1.0//EN" "http://www.w3.org/TR/2001/REC-SVG-20010904/DTD/svg10.dtd">

<svg xmlns="http://www.w3.org/2000/svg" xmlns:xlink="http://www.w3.org/1999/xlink" width="21.06cm" height="11.93cm" viewBox="0 0 796 451">
<title></title>
<desc>Created with Enterprise Architect (Build: 1716) 2</desc>

<g style="fill:#FFFFFF;fill-opacity:1.00;">
	 <rect x="0" y="0" width="796" height="451" shape-rendering="auto"/>
</g><g style="stroke-width:1;stroke-linecap:square;stroke-linejoin:miter; fill:#000000;fill-opacity:0.00; stroke:#000000; stroke-opacity:1.00;">
  <path d="M 6 6 L 6 445 L 790 445 L 790 6 L 6 6" shape-rendering="auto"/>
</g>
<g style="stroke-width:1;stroke-linecap:square;stroke-linejoin:miter; fill:#FFFFFF;fill-opacity:1.00; stroke:#000000; stroke-opacity:1.00;">
  <polygon points="6 26 52 26 65 12 65 6 6 6 6 26" shape-rendering="auto"   style="fill-rule:evenodd;"/>
</g>
<g style="stroke-width:1;stroke-linecap:square;stroke-linejoin:miter; fill:#000000;fill-opacity:1.00; stroke:#000000; stroke-opacity:0.00;">
	<text x="11.00" y="19.00" textLength="39" style="font-family:Calibri; font-weight:700; font-style:normal; font-size:10px; fill:#000000;fill-opacity:1.00; stroke:#000000; stroke-opacity:0.00; stroke-width:0; white-space: pre;" xml:space="preserve" transform="rotate(-0.00 11.00 19.00)">class BOT</text>
</g>
<g style="stroke-width:1;stroke-linecap:round;stroke-linejoin:bevel; fill:#DAFDDA;fill-opacity:1.00; stroke:#9A8484; stroke-opacity:1.00;">
 <rect x="211" y="78" width="160" height="40" rx="0.00" shape-rendering="auto"  />
</g>
<g style="stroke-width:1;stroke-linecap:round;stroke-linejoin:bevel; fill:#7C0000;fill-opacity:1.00; stroke:#000000; stroke-opacity:0.00;">
	<text x="276.00" y="93.00" textLength="92" style="font-family:Calibri; font-weight:700; font-style:italic; font-size:13px; fill:#7C0000;fill-opacity:1.00; stroke:#000000; stroke-opacity:0.00; stroke-width:0; white-space: pre;" xml:space="preserve" transform="rotate(-0.00 276.00 93.00)">Ruimtelijk gebied</text>
	<text x="277.00" y="111.00" textLength="27" style="font-family:Calibri; font-weight:700; font-style:normal; font-size:13px; fill:#7C0000;fill-opacity:1.00; stroke:#000000; stroke-opacity:0.00; stroke-width:0; white-space: pre;" xml:space="preserve" transform="rotate(-0.00 277.00 111.00)">Zone</text>
</g>
<g style="stroke-width:1;stroke-linecap:round;stroke-linejoin:bevel; fill:#DAFDDA;fill-opacity:1.00; stroke:#9A8484; stroke-opacity:1.00;">
 <rect x="101" y="153" width="160" height="40" rx="0.00" shape-rendering="auto"  />
</g>
<g style="stroke-width:1;stroke-linecap:round;stroke-linejoin:bevel; fill:#7C0000;fill-opacity:1.00; stroke:#000000; stroke-opacity:0.00;">
	<text x="170.00" y="174.00" textLength="21" style="font-family:Calibri; font-weight:700; font-style:normal; font-size:13px; fill:#7C0000;fill-opacity:1.00; stroke:#000000; stroke-opacity:0.00; stroke-width:0; white-space: pre;" xml:space="preserve" transform="rotate(-0.00 170.00 174.00)">Site</text>
</g>
<g style="stroke-width:1;stroke-linecap:round;stroke-linejoin:bevel; fill:#DAFDDA;fill-opacity:1.00; stroke:#9A8484; stroke-opacity:1.00;">
 <rect x="101" y="228" width="160" height="40" rx="0.00" shape-rendering="auto"  />
</g>
<g style="stroke-width:1;stroke-linecap:round;stroke-linejoin:bevel; fill:#7C0000;fill-opacity:1.00; stroke:#000000; stroke-opacity:0.00;">
	<text x="159.00" y="249.00" textLength="43" style="font-family:Calibri; font-weight:700; font-style:normal; font-size:13px; fill:#7C0000;fill-opacity:1.00; stroke:#000000; stroke-opacity:0.00; stroke-width:0; white-space: pre;" xml:space="preserve" transform="rotate(-0.00 159.00 249.00)">Building</text>
</g>
<g style="stroke-width:1;stroke-linecap:round;stroke-linejoin:bevel; fill:#DAFDDA;fill-opacity:1.00; stroke:#9A8484; stroke-opacity:1.00;">
 <rect x="101" y="303" width="160" height="40" rx="0.00" shape-rendering="auto"  />
</g>
<g style="stroke-width:1;stroke-linecap:round;stroke-linejoin:bevel; fill:#7C0000;fill-opacity:1.00; stroke:#000000; stroke-opacity:0.00;">
	<text x="163.00" y="324.00" textLength="36" style="font-family:Calibri; font-weight:700; font-style:normal; font-size:13px; fill:#7C0000;fill-opacity:1.00; stroke:#000000; stroke-opacity:0.00; stroke-width:0; white-space: pre;" xml:space="preserve" transform="rotate(-0.00 163.00 324.00)">Storey</text>
</g>
<g style="stroke-width:1;stroke-linecap:round;stroke-linejoin:bevel; fill:#DAFDDA;fill-opacity:1.00; stroke:#9A8484; stroke-opacity:1.00;">
 <rect x="551" y="78" width="160" height="40" rx="0.00" shape-rendering="auto"  />
</g>
<g style="stroke-width:1;stroke-linecap:round;stroke-linejoin:bevel; fill:#7C0000;fill-opacity:1.00; stroke:#000000; stroke-opacity:0.00;">
	<text x="644.00" y="93.00" textLength="64" style="font-family:Calibri; font-weight:700; font-style:italic; font-size:13px; fill:#7C0000;fill-opacity:1.00; stroke:#000000; stroke-opacity:0.00; stroke-width:0; white-space: pre;" xml:space="preserve" transform="rotate(-0.00 644.00 93.00)">Reëel object</text>
	<text x="608.00" y="111.00" textLength="46" style="font-family:Calibri; font-weight:700; font-style:normal; font-size:13px; fill:#7C0000;fill-opacity:1.00; stroke:#000000; stroke-opacity:0.00; stroke-width:0; white-space: pre;" xml:space="preserve" transform="rotate(-0.00 608.00 111.00)">Element</text>
</g>
<g style="stroke-width:1;stroke-linecap:round;stroke-linejoin:bevel; fill:#DAFDDA;fill-opacity:1.00; stroke:#9A8484; stroke-opacity:1.00;">
 <rect x="381" y="228" width="160" height="40" rx="0.00" shape-rendering="auto"  />
</g>
<g style="stroke-width:1;stroke-linecap:round;stroke-linejoin:bevel; fill:#7C0000;fill-opacity:1.00; stroke:#000000; stroke-opacity:0.00;">
	<text x="436.00" y="249.00" textLength="49" style="font-family:Calibri; font-weight:700; font-style:normal; font-size:13px; fill:#7C0000;fill-opacity:1.00; stroke:#000000; stroke-opacity:0.00; stroke-width:0; white-space: pre;" xml:space="preserve" transform="rotate(-0.00 436.00 249.00)">Interface</text>
</g>
<g style="stroke-width:1;stroke-linecap:round;stroke-linejoin:bevel; fill:#DAFDDA;fill-opacity:1.00; stroke:#9A8484; stroke-opacity:1.00;">
 <rect x="381" y="378" width="160" height="40" rx="0.00" shape-rendering="auto"  />
</g>
<g style="stroke-width:1;stroke-linecap:round;stroke-linejoin:bevel; fill:#7C0000;fill-opacity:1.00; stroke:#000000; stroke-opacity:0.00;">
	<text x="436.00" y="399.00" textLength="50" style="font-family:Calibri; font-weight:700; font-style:normal; font-size:13px; fill:#7C0000;fill-opacity:1.00; stroke:#000000; stroke-opacity:0.00; stroke-width:0; white-space: pre;" xml:space="preserve" transform="rotate(-0.00 436.00 399.00)">3DModel</text>
</g>
<g style="stroke-width:1;stroke-linecap:round;stroke-linejoin:bevel; fill:#DAFDDA;fill-opacity:1.00; stroke:#9A8484; stroke-opacity:1.00;">
 <rect x="101" y="378" width="160" height="40" rx="0.00" shape-rendering="auto"  />
</g>
<g style="stroke-width:1;stroke-linecap:round;stroke-linejoin:bevel; fill:#7C0000;fill-opacity:1.00; stroke:#000000; stroke-opacity:0.00;">
	<text x="165.00" y="399.00" textLength="31" style="font-family:Calibri; font-weight:700; font-style:normal; font-size:13px; fill:#7C0000;fill-opacity:1.00; stroke:#000000; stroke-opacity:0.00; stroke-width:0; white-space: pre;" xml:space="preserve" transform="rotate(-0.00 165.00 399.00)">Space</text>
</g>
<g style="stroke-width:1;stroke-linecap:round;stroke-linejoin:bevel; fill:#000000;fill-opacity:0.00; stroke:#658A99; stroke-opacity:1.00;" stroke-dasharray="3,3">
  <path d="M 486 138 L 461 98" shape-rendering="auto"/>
</g>
<g style="stroke-width:1;stroke-linecap:round;stroke-linejoin:bevel; fill:#FFFFFF;fill-opacity:1.00; stroke:#658A99; stroke-opacity:1.00;">
  <polygon points="441 138 441 183 561 183 561 150 549 138" shape-rendering="auto"   style="fill-rule:evenodd;"/>
</g>
<g style="stroke-width:1;stroke-linecap:round;stroke-linejoin:bevel; fill:#DCDCDC;fill-opacity:1.00; stroke:#658A99; stroke-opacity:1.00;">
  <polygon points="549 138 549 150 561 150" shape-rendering="auto"   style="fill-rule:evenodd;"/>
</g>
<g style="stroke-width:1;stroke-linecap:round;stroke-linejoin:bevel; fill:#3C3C3C;fill-opacity:1.00; stroke:#000000; stroke-opacity:0.00;">
	<text x="446.00" y="162.00" textLength="109" style="font-family:Calibri; font-weight:0; font-style:normal; font-size:10px; fill:#3C3C3C;fill-opacity:1.00; stroke:#000000; stroke-opacity:0.00; stroke-width:0; white-space: pre;" xml:space="preserve" transform="rotate(-0.00 446.00 162.00)">subtypen: adjacentElement</text>
	<text x="446.00" y="175.00" textLength="91" style="font-family:Calibri; font-weight:0; font-style:normal; font-size:10px; fill:#3C3C3C;fill-opacity:1.00; stroke:#000000; stroke-opacity:0.00; stroke-width:0; white-space: pre;" xml:space="preserve" transform="rotate(-0.00 446.00 175.00)">en intersectingElement</text>
</g>
<g style="stroke-width:1;stroke-linecap:round;stroke-linejoin:bevel; fill:#000000;fill-opacity:0.00; stroke:#69738C; stroke-opacity:1.00;">
  <path d="M 264 78 L 264 52 L 174 52 L 174 94 L 211 94" shape-rendering="auto"/>
  <path d="M 196 100 L 211 94 L 196 88" shape-rendering="auto"/>
  <path d="M 371 89 L 418 89 L 418 50 L 328 50 L 328 78" shape-rendering="auto"/>
  <path d="M 322 63 L 328 78 L 334 63" shape-rendering="auto"/>
  <path d="M 330 118 L 330 149 L 418 149 L 418 108 L 371 108" shape-rendering="auto"/>
  <path d="M 386 102 L 371 108 L 386 114" shape-rendering="auto"/>
  <path d="M 371 98 L 551 98" shape-rendering="auto"/>
  <path d="M 536 104 L 551 98 L 536 92" shape-rendering="auto"/>
  <path d="M 303 118 L 303 398 L 381 398" shape-rendering="auto"/>
  <path d="M 366 404 L 381 398 L 366 392" shape-rendering="auto"/>
  <path d="M 261 173 L 291 173 M 291 118" shape-rendering="auto"/>
  <path d="M 101 180 L 50 180 L 50 238 L 101 238" shape-rendering="auto"/>
  <path d="M 86 244 L 101 238 L 86 232" shape-rendering="auto"/>
  <path d="M 261 248 L 291 248 M 291 118" shape-rendering="auto"/>
  <path d="M 101 256 L 51 256 L 51 314 L 101 314" shape-rendering="auto"/>
  <path d="M 86 320 L 101 314 L 86 308" shape-rendering="auto"/>
  <path d="M 261 323 L 291 323 M 291 118" shape-rendering="auto"/>
  <path d="M 101 332 L 51 332 L 51 388 L 101 388" shape-rendering="auto"/>
  <path d="M 86 394 L 101 388 L 86 382" shape-rendering="auto"/>
  <path d="M 711 100 L 740 100 L 740 49 L 636 49 L 636 78" shape-rendering="auto"/>
  <path d="M 630 63 L 636 78 L 642 63" shape-rendering="auto"/>
  <path d="M 672 118 L 672 395 L 541 395" shape-rendering="auto"/>
  <path d="M 556 389 L 541 395 L 556 401" shape-rendering="auto"/>
  <path d="M 381 245 L 317 245 L 317 118" shape-rendering="auto"/>
  <path d="M 323 133 L 317 118 L 311 133" shape-rendering="auto"/>
  <path d="M 541 246 L 636 246 L 636 118" shape-rendering="auto"/>
  <path d="M 642 133 L 636 118 L 630 133" shape-rendering="auto"/>
  <path d="M 261 398 L 291 398 L 291 118" shape-rendering="auto"/>
</g>
<g style="stroke-width:1;stroke-linecap:round;stroke-linejoin:bevel; fill:#FAF1EC;fill-opacity:1.00; stroke:#69738C; stroke-opacity:1.00;">
  <polygon points="297 134 285 134 291 118" shape-rendering="auto"   style="fill-rule:evenodd;"/>
</g>
<g style="stroke-width:1;stroke-linecap:round;stroke-linejoin:bevel; fill:#595959;fill-opacity:1.00; stroke:#000000; stroke-opacity:0.00;">
	<text x="317.00" y="394.00" textLength="51" style="font-family:Calibri; font-weight:0; font-style:normal; font-size:10px; fill:#595959;fill-opacity:1.00; stroke:#000000; stroke-opacity:0.00; stroke-width:0; white-space: pre;" xml:space="preserve" transform="rotate(-0.00 317.00 394.00)">has3DModel</text>
	<text x="31.00" y="365.00" textLength="38" style="font-family:Calibri; font-weight:0; font-style:normal; font-size:10px; fill:#595959;fill-opacity:1.00; stroke:#000000; stroke-opacity:0.00; stroke-width:0; white-space: pre;" xml:space="preserve" transform="rotate(-0.00 31.00 365.00)">hasSpace</text>
	<text x="581.00" y="391.00" textLength="51" style="font-family:Calibri; font-weight:0; font-style:normal; font-size:10px; fill:#595959;fill-opacity:1.00; stroke:#000000; stroke-opacity:0.00; stroke-width:0; white-space: pre;" xml:space="preserve" transform="rotate(-0.00 581.00 391.00)">has3DModel</text>
	<text x="30.00" y="287.00" textLength="49" style="font-family:Calibri; font-weight:0; font-style:normal; font-size:10px; fill:#595959;fill-opacity:1.00; stroke:#000000; stroke-opacity:0.00; stroke-width:0; white-space: pre;" xml:space="preserve" transform="rotate(-0.00 30.00 287.00)">chasStoreay</text>
	<text x="345.00" y="145.00" textLength="58" style="font-family:Calibri; font-weight:0; font-style:normal; font-size:10px; fill:#595959;fill-opacity:1.00; stroke:#000000; stroke-opacity:0.00; stroke-width:0; white-space: pre;" xml:space="preserve" transform="rotate(-0.00 345.00 145.00)">intersectsZone</text>
	<text x="448.00" y="89.00" textLength="47" style="font-family:Calibri; font-weight:0; font-style:normal; font-size:10px; fill:#595959;fill-opacity:1.00; stroke:#000000; stroke-opacity:0.00; stroke-width:0; white-space: pre;" xml:space="preserve" transform="rotate(-0.00 448.00 89.00)">hasElement</text>
	<text x="574.00" y="238.00" textLength="45" style="font-family:Calibri; font-weight:0; font-style:normal; font-size:10px; fill:#595959;fill-opacity:1.00; stroke:#000000; stroke-opacity:0.00; stroke-width:0; white-space: pre;" xml:space="preserve" transform="rotate(-0.00 574.00 238.00)">interfaceOf</text>
	<text x="30.00" y="210.00" textLength="45" style="font-family:Calibri; font-weight:0; font-style:normal; font-size:10px; fill:#595959;fill-opacity:1.00; stroke:#000000; stroke-opacity:0.00; stroke-width:0; white-space: pre;" xml:space="preserve" transform="rotate(-0.00 30.00 210.00)">hasBuilding</text>
	<text x="192.00" y="48.00" textLength="54" style="font-family:Calibri; font-weight:0; font-style:normal; font-size:10px; fill:#595959;fill-opacity:1.00; stroke:#000000; stroke-opacity:0.00; stroke-width:0; white-space: pre;" xml:space="preserve" transform="rotate(-0.00 192.00 48.00)">adjacentZone</text>
	<text x="331.00" y="237.00" textLength="45" style="font-family:Calibri; font-weight:0; font-style:normal; font-size:10px; fill:#595959;fill-opacity:1.00; stroke:#000000; stroke-opacity:0.00; stroke-width:0; white-space: pre;" xml:space="preserve" transform="rotate(-0.00 331.00 237.00)">interfaceOf</text>
	<text x="347.00" y="46.00" textLength="53" style="font-family:Calibri; font-weight:0; font-style:normal; font-size:10px; fill:#595959;fill-opacity:1.00; stroke:#000000; stroke-opacity:0.00; stroke-width:0; white-space: pre;" xml:space="preserve" transform="rotate(-0.00 347.00 46.00)">containsZone</text>
	<text x="657.00" y="45.00" textLength="62" style="font-family:Calibri; font-weight:0; font-style:normal; font-size:10px; fill:#595959;fill-opacity:1.00; stroke:#000000; stroke-opacity:0.00; stroke-width:0; white-space: pre;" xml:space="preserve" transform="rotate(-0.00 657.00 45.00)">hasSubElement</text>
</g>
</svg>
