<?xml version="1.0" encoding="UTF-8" standalone="no"?>
<!DOCTYPE svg PUBLIC "-//W3C//DTD SVG 1.0//EN" "http://www.w3.org/TR/2001/REC-SVG-20010904/DTD/svg10.dtd">

<svg xmlns="http://www.w3.org/2000/svg" xmlns:xlink="http://www.w3.org/1999/xlink" width="25.27cm" height="20.72cm" viewBox="0 0 955 783">
<title></title>
<desc>Created with Enterprise Architect (Build: 1716) 2</desc>

<g style="fill:#FFFFFF;fill-opacity:1.00;">
	 <rect x="0" y="0" width="955" height="783" shape-rendering="auto"/>
</g><g style="stroke-width:1;stroke-linecap:square;stroke-linejoin:miter; fill:#000000;fill-opacity:0.00; stroke:#000000; stroke-opacity:1.00;">
  <path d="M 6 6 L 6 777 L 949 777 L 949 6 L 6 6" shape-rendering="auto"/>
</g>
<g style="stroke-width:1;stroke-linecap:square;stroke-linejoin:miter; fill:#FFFFFF;fill-opacity:1.00; stroke:#000000; stroke-opacity:1.00;">
  <polygon points="6 26 109 26 122 12 122 6 6 6 6 26" shape-rendering="auto"   style="fill-rule:evenodd;"/>
</g>
<g style="stroke-width:1;stroke-linecap:square;stroke-linejoin:miter; fill:#000000;fill-opacity:1.00; stroke:#000000; stroke-opacity:0.00;">
	<text x="11.00" y="19.00" textLength="96" style="font-family:Calibri; font-weight:700; font-style:normal; font-size:10px; fill:#000000;fill-opacity:1.00; stroke:#000000; stroke-opacity:0.00; stroke-width:0; white-space: pre;" xml:space="preserve" transform="rotate(-0.00 11.00 19.00)">class NEN2580-Gebouw</text>
</g>
<g style="stroke-width:2;stroke-linecap:round;stroke-linejoin:bevel; fill:#FFFFFF;fill-opacity:1.00; stroke:#000000; stroke-opacity:1.00;">
 <rect x="445" y="70" width="130" height="40" rx="0.00" shape-rendering="auto"  />
</g>
<g style="stroke-width:1;stroke-linecap:round;stroke-linejoin:bevel; fill:#595959;fill-opacity:1.00; stroke:#000000; stroke-opacity:0.00;">
	<text x="475.00" y="91.00" textLength="69" style="font-family:Calibri; font-weight:700; font-style:normal; font-size:13px; fill:#595959;fill-opacity:1.00; stroke:#000000; stroke-opacity:0.00; stroke-width:0; white-space: pre;" xml:space="preserve" transform="rotate(-0.00 475.00 91.00)">Brutoruimte</text>
</g>
<g style="stroke-width:2;stroke-linecap:round;stroke-linejoin:bevel; fill:#FFFFFF;fill-opacity:1.00; stroke:#000000; stroke-opacity:1.00;">
 <rect x="35" y="190" width="130" height="40" rx="0.00" shape-rendering="auto"  />
</g>
<g style="stroke-width:1;stroke-linecap:round;stroke-linejoin:bevel; fill:#595959;fill-opacity:1.00; stroke:#000000; stroke-opacity:0.00;">
	<text x="64.00" y="211.00" textLength="71" style="font-family:Calibri; font-weight:700; font-style:normal; font-size:13px; fill:#595959;fill-opacity:1.00; stroke:#000000; stroke-opacity:0.00; stroke-width:0; white-space: pre;" xml:space="preserve" transform="rotate(-0.00 64.00 211.00)">Nettoruimte</text>
</g>
<g style="stroke-width:1;stroke-linecap:round;stroke-linejoin:bevel; fill:#FFFFFF;fill-opacity:1.00; stroke:#000000; stroke-opacity:1.00;">
  <polygon points="655 40 655 124 875 124 875 52 863 40" shape-rendering="auto"   style="fill-rule:evenodd;"/>
</g>
<g style="stroke-width:1;stroke-linecap:round;stroke-linejoin:bevel; fill:#DCDCDC;fill-opacity:1.00; stroke:#000000; stroke-opacity:1.00;">
  <polygon points="863 40 863 52 875 52" shape-rendering="auto"   style="fill-rule:evenodd;"/>
</g>
<g style="stroke-width:1;stroke-linecap:round;stroke-linejoin:bevel; fill:#000000;fill-opacity:1.00; stroke:#000000; stroke-opacity:0.00;">
	<text x="660.00" y="64.00" textLength="208" style="font-family:Calibri; font-weight:0; font-style:normal; font-size:10px; fill:#000000;fill-opacity:1.00; stroke:#000000; stroke-opacity:0.00; stroke-width:0; white-space: pre;" xml:space="preserve" transform="rotate(-0.00 660.00 64.00)">De objecttypen zijn afgeleid van de begrippen in NEN</text>
	<text x="660.00" y="77.00" textLength="180" style="font-family:Calibri; font-weight:0; font-style:normal; font-size:10px; fill:#000000;fill-opacity:1.00; stroke:#000000; stroke-opacity:0.00; stroke-width:0; white-space: pre;" xml:space="preserve" transform="rotate(-0.00 660.00 77.00)">2580: de termen 'oppervlakte' en 'inhoud' zijn</text>
	<text x="660.00" y="90.00" textLength="166" style="font-family:Calibri; font-weight:0; font-style:normal; font-size:10px; fill:#000000;fill-opacity:1.00; stroke:#000000; stroke-opacity:0.00; stroke-width:0; white-space: pre;" xml:space="preserve" transform="rotate(-0.00 660.00 90.00)">gegeneraliseerd tot 'ruimte'. Bijvoorbeeld:</text>
	<text x="660.00" y="103.00" textLength="142" style="font-family:Calibri; font-weight:0; font-style:normal; font-size:10px; fill:#000000;fill-opacity:1.00; stroke:#000000; stroke-opacity:0.00; stroke-width:0; white-space: pre;" xml:space="preserve" transform="rotate(-0.00 660.00 103.00)">Brutoruimte is een generalisatie van</text>
	<text x="660.00" y="116.00" textLength="113" style="font-family:Calibri; font-weight:0; font-style:normal; font-size:10px; fill:#000000;fill-opacity:1.00; stroke:#000000; stroke-opacity:0.00; stroke-width:0; white-space: pre;" xml:space="preserve" transform="rotate(-0.00 660.00 116.00)">brutovoeropeervlakte (BVO)</text>
</g>
<g style="stroke-width:2;stroke-linecap:round;stroke-linejoin:bevel; fill:#FFFFFF;fill-opacity:1.00; stroke:#000000; stroke-opacity:1.00;">
 <rect x="775" y="190" width="130" height="40" rx="0.00" shape-rendering="auto"  />
</g>
<g style="stroke-width:1;stroke-linecap:round;stroke-linejoin:bevel; fill:#595959;fill-opacity:1.00; stroke:#000000; stroke-opacity:0.00;">
	<text x="807.00" y="211.00" textLength="66" style="font-family:Calibri; font-weight:700; font-style:normal; font-size:13px; fill:#595959;fill-opacity:1.00; stroke:#000000; stroke-opacity:0.00; stroke-width:0; white-space: pre;" xml:space="preserve" transform="rotate(-0.00 807.00 211.00)">Tarraruimte</text>
</g>
<g style="stroke-width:2;stroke-linecap:round;stroke-linejoin:bevel; fill:#FFFFFF;fill-opacity:1.00; stroke:#000000; stroke-opacity:1.00;">
 <rect x="195" y="260" width="130" height="40" rx="0.00" shape-rendering="auto"  />
</g>
<g style="stroke-width:1;stroke-linecap:round;stroke-linejoin:bevel; fill:#595959;fill-opacity:1.00; stroke:#000000; stroke-opacity:0.00;">
	<text x="226.00" y="281.00" textLength="68" style="font-family:Calibri; font-weight:700; font-style:normal; font-size:13px; fill:#595959;fill-opacity:1.00; stroke:#000000; stroke-opacity:0.00; stroke-width:0; white-space: pre;" xml:space="preserve" transform="rotate(-0.00 226.00 281.00)">Ruimte voor</text>
	<text x="209.00" y="296.00" textLength="102" style="font-family:Calibri; font-weight:700; font-style:normal; font-size:13px; fill:#595959;fill-opacity:1.00; stroke:#000000; stroke-opacity:0.00; stroke-width:0; white-space: pre;" xml:space="preserve" transform="rotate(-0.00 209.00 296.00)">gebouwinstallaties</text>
</g>
<g style="stroke-width:2;stroke-linecap:round;stroke-linejoin:bevel; fill:#FFFFFF;fill-opacity:1.00; stroke:#000000; stroke-opacity:1.00;">
 <rect x="195" y="374" width="130" height="40" rx="0.00" shape-rendering="auto"  />
</g>
<g style="stroke-width:1;stroke-linecap:round;stroke-linejoin:bevel; fill:#595959;fill-opacity:1.00; stroke:#000000; stroke-opacity:0.00;">
	<text x="201.00" y="395.00" textLength="117" style="font-family:Calibri; font-weight:700; font-style:normal; font-size:13px; fill:#595959;fill-opacity:1.00; stroke:#000000; stroke-opacity:0.00; stroke-width:0; white-space: pre;" xml:space="preserve" transform="rotate(-0.00 201.00 395.00)">Ruimte voor verticaal</text>
	<text x="238.00" y="410.00" textLength="43" style="font-family:Calibri; font-weight:700; font-style:normal; font-size:13px; fill:#595959;fill-opacity:1.00; stroke:#000000; stroke-opacity:0.00; stroke-width:0; white-space: pre;" xml:space="preserve" transform="rotate(-0.00 238.00 410.00)">verkeer</text>
</g>
<g style="stroke-width:2;stroke-linecap:round;stroke-linejoin:bevel; fill:#FFFFFF;fill-opacity:1.00; stroke:#000000; stroke-opacity:1.00;">
 <rect x="195" y="431" width="130" height="40" rx="0.00" shape-rendering="auto"  />
</g>
<g style="stroke-width:1;stroke-linecap:round;stroke-linejoin:bevel; fill:#595959;fill-opacity:1.00; stroke:#000000; stroke-opacity:0.00;">
	<text x="226.00" y="452.00" textLength="68" style="font-family:Calibri; font-weight:700; font-style:normal; font-size:13px; fill:#595959;fill-opacity:1.00; stroke:#000000; stroke-opacity:0.00; stroke-width:0; white-space: pre;" xml:space="preserve" transform="rotate(-0.00 226.00 452.00)">Ruimte voor</text>
	<text x="206.00" y="467.00" textLength="107" style="font-family:Calibri; font-weight:700; font-style:normal; font-size:13px; fill:#595959;fill-opacity:1.00; stroke:#000000; stroke-opacity:0.00; stroke-width:0; white-space: pre;" xml:space="preserve" transform="rotate(-0.00 206.00 467.00)">horizontaal verkeer</text>
</g>
<g style="stroke-width:2;stroke-linecap:round;stroke-linejoin:bevel; fill:#FFFFFF;fill-opacity:1.00; stroke:#000000; stroke-opacity:1.00;">
 <rect x="195" y="317" width="130" height="40" rx="0.00" shape-rendering="auto"  />
</g>
<g style="stroke-width:1;stroke-linecap:round;stroke-linejoin:bevel; fill:#595959;fill-opacity:1.00; stroke:#000000; stroke-opacity:0.00;">
	<text x="219.00" y="338.00" textLength="81" style="font-family:Calibri; font-weight:700; font-style:normal; font-size:13px; fill:#595959;fill-opacity:1.00; stroke:#000000; stroke-opacity:0.00; stroke-width:0; white-space: pre;" xml:space="preserve" transform="rotate(-0.00 219.00 338.00)">Parkeerruimte</text>
</g>
<g style="stroke-width:2;stroke-linecap:round;stroke-linejoin:bevel; fill:#FFFFFF;fill-opacity:1.00; stroke:#000000; stroke-opacity:1.00;">
 <rect x="195" y="488" width="130" height="40" rx="0.00" shape-rendering="auto"  />
</g>
<g style="stroke-width:1;stroke-linecap:round;stroke-linejoin:bevel; fill:#595959;fill-opacity:1.00; stroke:#000000; stroke-opacity:0.00;">
	<text x="220.00" y="509.00" textLength="80" style="font-family:Calibri; font-weight:700; font-style:normal; font-size:13px; fill:#595959;fill-opacity:1.00; stroke:#000000; stroke-opacity:0.00; stroke-width:0; white-space: pre;" xml:space="preserve" transform="rotate(-0.00 220.00 509.00)">Rijwielstalling/</text>
	<text x="225.00" y="524.00" textLength="70" style="font-family:Calibri; font-weight:700; font-style:normal; font-size:13px; fill:#595959;fill-opacity:1.00; stroke:#000000; stroke-opacity:0.00; stroke-width:0; white-space: pre;" xml:space="preserve" transform="rotate(-0.00 225.00 524.00)">buitnberging</text>
</g>
<g style="stroke-width:2;stroke-linecap:round;stroke-linejoin:bevel; fill:#FFFFFF;fill-opacity:1.00; stroke:#000000; stroke-opacity:1.00;">
 <rect x="195" y="602" width="130" height="40" rx="0.00" shape-rendering="auto"  />
</g>
<g style="stroke-width:1;stroke-linecap:round;stroke-linejoin:bevel; fill:#595959;fill-opacity:1.00; stroke:#000000; stroke-opacity:0.00;">
	<text x="228.00" y="623.00" textLength="63" style="font-family:Calibri; font-weight:700; font-style:normal; font-size:13px; fill:#595959;fill-opacity:1.00; stroke:#000000; stroke-opacity:0.00; stroke-width:0; white-space: pre;" xml:space="preserve" transform="rotate(-0.00 228.00 623.00)">Bergruimte</text>
</g>
<g style="stroke-width:2;stroke-linecap:round;stroke-linejoin:bevel; fill:#FFFFFF;fill-opacity:1.00; stroke:#000000; stroke-opacity:1.00;">
 <rect x="195" y="545" width="130" height="40" rx="0.00" shape-rendering="auto"  />
</g>
<g style="stroke-width:1;stroke-linecap:round;stroke-linejoin:bevel; fill:#595959;fill-opacity:1.00; stroke:#000000; stroke-opacity:0.00;">
	<text x="215.00" y="566.00" textLength="89" style="font-family:Calibri; font-weight:700; font-style:normal; font-size:13px; fill:#595959;fill-opacity:1.00; stroke:#000000; stroke-opacity:0.00; stroke-width:0; white-space: pre;" xml:space="preserve" transform="rotate(-0.00 215.00 566.00)">Sanitaire ruimte</text>
</g>
<g style="stroke-width:2;stroke-linecap:round;stroke-linejoin:bevel; fill:#FFFFFF;fill-opacity:1.00; stroke:#000000; stroke-opacity:1.00;">
 <rect x="195" y="659" width="130" height="40" rx="0.00" shape-rendering="auto"  />
</g>
<g style="stroke-width:1;stroke-linecap:round;stroke-linejoin:bevel; fill:#595959;fill-opacity:1.00; stroke:#000000; stroke-opacity:0.00;">
	<text x="218.00" y="680.00" textLength="84" style="font-family:Calibri; font-weight:700; font-style:normal; font-size:13px; fill:#595959;fill-opacity:1.00; stroke:#000000; stroke-opacity:0.00; stroke-width:0; white-space: pre;" xml:space="preserve" transform="rotate(-0.00 218.00 680.00)">Indelingsverlies</text>
</g>
<g style="stroke-width:2;stroke-linecap:round;stroke-linejoin:bevel; fill:#FFFFFF;fill-opacity:1.00; stroke:#000000; stroke-opacity:1.00;">
 <rect x="625" y="260" width="130" height="40" rx="0.00" shape-rendering="auto"  />
</g>
<g style="stroke-width:1;stroke-linecap:round;stroke-linejoin:bevel; fill:#595959;fill-opacity:1.00; stroke:#000000; stroke-opacity:0.00;">
	<text x="652.00" y="281.00" textLength="76" style="font-family:Calibri; font-weight:700; font-style:normal; font-size:13px; fill:#595959;fill-opacity:1.00; stroke:#000000; stroke-opacity:0.00; stroke-width:0; white-space: pre;" xml:space="preserve" transform="rotate(-0.00 652.00 281.00)">Speratiewand</text>
</g>
<g style="stroke-width:2;stroke-linecap:round;stroke-linejoin:bevel; fill:#FFFFFF;fill-opacity:1.00; stroke:#000000; stroke-opacity:1.00;">
 <rect x="625" y="390" width="130" height="74" rx="0.00" shape-rendering="auto"  />
</g>
<g style="stroke-width:1;stroke-linecap:round;stroke-linejoin:bevel; fill:#595959;fill-opacity:1.00; stroke:#000000; stroke-opacity:0.00;">
	<text x="631.00" y="411.00" textLength="117" style="font-family:Calibri; font-weight:700; font-style:normal; font-size:13px; fill:#595959;fill-opacity:1.00; stroke:#000000; stroke-opacity:0.00; stroke-width:0; white-space: pre;" xml:space="preserve" transform="rotate(-0.00 631.00 411.00)">Scheidingsconstructie</text>
	<text x="672.00" y="426.00" textLength="36" style="font-family:Calibri; font-weight:700; font-style:normal; font-size:13px; fill:#595959;fill-opacity:1.00; stroke:#000000; stroke-opacity:0.00; stroke-width:0; white-space: pre;" xml:space="preserve" transform="rotate(-0.00 672.00 426.00)">tussen</text>
	<text x="645.00" y="441.00" textLength="89" style="font-family:Calibri; font-weight:700; font-style:normal; font-size:13px; fill:#595959;fill-opacity:1.00; stroke:#000000; stroke-opacity:0.00; stroke-width:0; white-space: pre;" xml:space="preserve" transform="rotate(-0.00 645.00 441.00)">gebruiksfuncties</text>
</g>
<g style="stroke-width:2;stroke-linecap:round;stroke-linejoin:bevel; fill:#FFFFFF;fill-opacity:1.00; stroke:#000000; stroke-opacity:1.00;">
 <rect x="625" y="489" width="130" height="40" rx="0.00" shape-rendering="auto"  />
</g>
<g style="stroke-width:1;stroke-linecap:round;stroke-linejoin:bevel; fill:#595959;fill-opacity:1.00; stroke:#000000; stroke-opacity:0.00;">
	<text x="639.00" y="510.00" textLength="101" style="font-family:Calibri; font-weight:700; font-style:normal; font-size:13px; fill:#595959;fill-opacity:1.00; stroke:#000000; stroke-opacity:0.00; stroke-width:0; white-space: pre;" xml:space="preserve" transform="rotate(-0.00 639.00 510.00)">Niet-toegankelijke</text>
	<text x="652.00" y="525.00" textLength="76" style="font-family:Calibri; font-weight:700; font-style:normal; font-size:13px; fill:#595959;fill-opacity:1.00; stroke:#000000; stroke-opacity:0.00; stroke-width:0; white-space: pre;" xml:space="preserve" transform="rotate(-0.00 652.00 525.00)">leidingschacht</text>
</g>
<g style="stroke-width:2;stroke-linecap:round;stroke-linejoin:bevel; fill:#FFFFFF;fill-opacity:1.00; stroke:#000000; stroke-opacity:1.00;">
 <rect x="625" y="554" width="130" height="40" rx="0.00" shape-rendering="auto"  />
</g>
<g style="stroke-width:1;stroke-linecap:round;stroke-linejoin:bevel; fill:#595959;fill-opacity:1.00; stroke:#000000; stroke-opacity:0.00;">
	<text x="640.00" y="575.00" textLength="100" style="font-family:Calibri; font-weight:700; font-style:normal; font-size:13px; fill:#595959;fill-opacity:1.00; stroke:#000000; stroke-opacity:0.00; stroke-width:0; white-space: pre;" xml:space="preserve" transform="rotate(-0.00 640.00 575.00)">Statisch bouwdeel</text>
</g>
<g style="stroke-width:2;stroke-linecap:round;stroke-linejoin:bevel; fill:#FFFFFF;fill-opacity:1.00; stroke:#000000; stroke-opacity:1.00;">
 <rect x="625" y="325" width="130" height="40" rx="0.00" shape-rendering="auto"  />
</g>
<g style="stroke-width:1;stroke-linecap:round;stroke-linejoin:bevel; fill:#595959;fill-opacity:1.00; stroke:#000000; stroke-opacity:0.00;">
	<text x="646.00" y="346.00" textLength="87" style="font-family:Calibri; font-weight:700; font-style:normal; font-size:13px; fill:#595959;fill-opacity:1.00; stroke:#000000; stroke-opacity:0.00; stroke-width:0; white-space: pre;" xml:space="preserve" transform="rotate(-0.00 646.00 346.00)">Glaslijncorrectie</text>
</g>
<g style="stroke-width:2;stroke-linecap:round;stroke-linejoin:bevel; fill:#FFFFFF;fill-opacity:1.00; stroke:#000000; stroke-opacity:1.00;">
 <rect x="625" y="619" width="130" height="40" rx="0.00" shape-rendering="auto"  />
</g>
<g style="stroke-width:1;stroke-linecap:round;stroke-linejoin:bevel; fill:#595959;fill-opacity:1.00; stroke:#000000; stroke-opacity:0.00;">
	<text x="633.00" y="640.00" textLength="113" style="font-family:Calibri; font-weight:700; font-style:normal; font-size:13px; fill:#595959;fill-opacity:1.00; stroke:#000000; stroke-opacity:0.00; stroke-width:0; white-space: pre;" xml:space="preserve" transform="rotate(-0.00 633.00 640.00)">Ruimte lager dan 1,5</text>
	<text x="681.00" y="655.00" textLength="18" style="font-family:Calibri; font-weight:700; font-style:normal; font-size:13px; fill:#595959;fill-opacity:1.00; stroke:#000000; stroke-opacity:0.00; stroke-width:0; white-space: pre;" xml:space="preserve" transform="rotate(-0.00 681.00 655.00)">m1</text>
</g>
<g style="stroke-width:2;stroke-linecap:round;stroke-linejoin:bevel; fill:#FFFFFF;fill-opacity:1.00; stroke:#000000; stroke-opacity:1.00;">
 <rect x="445" y="190" width="130" height="40" rx="0.00" shape-rendering="auto"  />
</g>
<g style="stroke-width:1;stroke-linecap:round;stroke-linejoin:bevel; fill:#595959;fill-opacity:1.00; stroke:#000000; stroke-opacity:0.00;">
	<text x="467.00" y="211.00" textLength="86" style="font-family:Calibri; font-weight:700; font-style:normal; font-size:13px; fill:#595959;fill-opacity:1.00; stroke:#000000; stroke-opacity:0.00; stroke-width:0; white-space: pre;" xml:space="preserve" transform="rotate(-0.00 467.00 211.00)">Gebruiksruimte</text>
</g>
<g style="stroke-width:2;stroke-linecap:round;stroke-linejoin:bevel; fill:#FFFFFF;fill-opacity:1.00; stroke:#000000; stroke-opacity:1.00;">
 <rect x="355" y="260" width="130" height="40" rx="0.00" shape-rendering="auto"  />
</g>
<g style="stroke-width:1;stroke-linecap:round;stroke-linejoin:bevel; fill:#595959;fill-opacity:1.00; stroke:#000000; stroke-opacity:0.00;">
	<text x="364.00" y="281.00" textLength="112" style="font-family:Calibri; font-weight:700; font-style:normal; font-size:13px; fill:#595959;fill-opacity:1.00; stroke:#000000; stroke-opacity:0.00; stroke-width:0; white-space: pre;" xml:space="preserve" transform="rotate(-0.00 364.00 281.00)">Verhuurbare ruimte</text>
</g>
<g style="stroke-width:2;stroke-linecap:round;stroke-linejoin:bevel; fill:#FFFFFF;fill-opacity:1.00; stroke:#000000; stroke-opacity:1.00;">
 <rect x="445" y="420" width="130" height="40" rx="0.00" shape-rendering="auto"  />
</g>
<g style="stroke-width:1;stroke-linecap:round;stroke-linejoin:bevel; fill:#595959;fill-opacity:1.00; stroke:#000000; stroke-opacity:0.00;">
	<text x="468.00" y="441.00" textLength="83" style="font-family:Calibri; font-weight:700; font-style:normal; font-size:13px; fill:#595959;fill-opacity:1.00; stroke:#000000; stroke-opacity:0.00; stroke-width:0; white-space: pre;" xml:space="preserve" transform="rotate(-0.00 468.00 441.00)">Nuttige ruimte</text>
</g>
<g style="stroke-width:2;stroke-linecap:round;stroke-linejoin:bevel; fill:#FFFFFF;fill-opacity:1.00; stroke:#000000; stroke-opacity:1.00;">
 <rect x="495" y="710" width="130" height="40" rx="0.00" shape-rendering="auto"  />
</g>
<g style="stroke-width:1;stroke-linecap:round;stroke-linejoin:bevel; fill:#595959;fill-opacity:1.00; stroke:#000000; stroke-opacity:0.00;">
	<text x="506.00" y="731.00" textLength="107" style="font-family:Calibri; font-weight:700; font-style:normal; font-size:13px; fill:#595959;fill-opacity:1.00; stroke:#000000; stroke-opacity:0.00; stroke-width:0; white-space: pre;" xml:space="preserve" transform="rotate(-0.00 506.00 731.00)">Functioneel nuttige</text>
	<text x="541.00" y="746.00" textLength="38" style="font-family:Calibri; font-weight:700; font-style:normal; font-size:13px; fill:#595959;fill-opacity:1.00; stroke:#000000; stroke-opacity:0.00; stroke-width:0; white-space: pre;" xml:space="preserve" transform="rotate(-0.00 541.00 746.00)">ruimte</text>
</g>
<g style="stroke-width:2;stroke-linecap:round;stroke-linejoin:bevel; fill:#000000;fill-opacity:0.00; stroke:#000000; stroke-opacity:1.00;">
  <path d="M 509 111 L 509 140 L 100 140 L 100 189" shape-rendering="auto"/>
  <path d="M 94 174 L 100 189 L 106 174" shape-rendering="auto"/>
  <path d="M 509 140 L 840 140 L 840 189" shape-rendering="auto"/>
  <path d="M 834 174 L 840 189 L 846 174" shape-rendering="auto"/>
  <path d="M 100 280 L 195 280" shape-rendering="auto"/>
  <path d="M 180 286 L 195 280 L 180 274" shape-rendering="auto"/>
  <path d="M 100 337 L 195 337" shape-rendering="auto"/>
  <path d="M 180 343 L 195 337 L 180 331" shape-rendering="auto"/>
  <path d="M 100 394 L 195 394" shape-rendering="auto"/>
  <path d="M 180 400 L 195 394 L 180 388" shape-rendering="auto"/>
  <path d="M 100 451 L 195 451" shape-rendering="auto"/>
  <path d="M 180 457 L 195 451 L 180 445" shape-rendering="auto"/>
  <path d="M 100 508 L 195 508" shape-rendering="auto"/>
  <path d="M 180 514 L 195 508 L 180 502" shape-rendering="auto"/>
  <path d="M 100 565 L 195 565" shape-rendering="auto"/>
  <path d="M 180 571 L 195 565 L 180 559" shape-rendering="auto"/>
  <path d="M 100 622 L 195 622" shape-rendering="auto"/>
  <path d="M 180 628 L 195 622 L 180 616" shape-rendering="auto"/>
  <path d="M 100 230 L 100 679 L 195 679" shape-rendering="auto"/>
  <path d="M 180 685 L 195 679 L 180 673" shape-rendering="auto"/>
  <path d="M 840 230 L 840 280 L 755 280" shape-rendering="auto"/>
  <path d="M 770 274 L 755 280 L 770 286" shape-rendering="auto"/>
  <path d="M 840 230 L 840 345 L 755 345" shape-rendering="auto"/>
  <path d="M 770 339 L 755 345 L 770 351" shape-rendering="auto"/>
  <path d="M 840 230 L 840 427 L 755 427" shape-rendering="auto"/>
  <path d="M 770 421 L 755 427 L 770 433" shape-rendering="auto"/>
  <path d="M 840 230 L 840 509 L 755 509" shape-rendering="auto"/>
  <path d="M 770 503 L 755 509 L 770 515" shape-rendering="auto"/>
  <path d="M 840 230 L 840 574 L 755 574" shape-rendering="auto"/>
  <path d="M 770 568 L 755 574 L 770 580" shape-rendering="auto"/>
  <path d="M 840 230 L 840 639 L 755 639" shape-rendering="auto"/>
  <path d="M 770 633 L 755 639 L 770 645" shape-rendering="auto"/>
</g>
<g style="stroke-width:2;stroke-linecap:round;stroke-linejoin:bevel; fill:#000000;fill-opacity:0.00; stroke:#69738C; stroke-opacity:1.00;">
  <path d="M 445 210 L 166 210" shape-rendering="auto"/>
  <path d="M 181 204 L 166 210 L 181 216" shape-rendering="auto"/>
  <path d="M 575 209 L 676 209 L 676 260" shape-rendering="auto"/>
  <path d="M 670 245 L 676 260 L 682 245" shape-rendering="auto"/>
  <path d="M 420 451 L 325 451" shape-rendering="auto"/>
  <path d="M 340 445 L 325 451 L 340 457" shape-rendering="auto"/>
</g>
<g style="stroke-width:1;stroke-linecap:round;stroke-linejoin:bevel; fill:#000000;fill-opacity:0.00; stroke:#000000; stroke-opacity:1.00;">
</g>
<g style="stroke-width:2;stroke-linecap:round;stroke-linejoin:bevel; fill:#000000;fill-opacity:0.00; stroke:#69738C; stroke-opacity:1.00;">
  <path d="M 420 300 L 420 679 L 325 679" shape-rendering="auto"/>
  <path d="M 340 673 L 325 679 L 340 685" shape-rendering="auto"/>
  <path d="M 485 280 L 625 280" shape-rendering="auto"/>
  <path d="M 610 286 L 625 280 L 610 274" shape-rendering="auto"/>
  <path d="M 420 345 L 625 345" shape-rendering="auto"/>
  <path d="M 610 351 L 625 345 L 610 339" shape-rendering="auto"/>
</g>
<g style="stroke-width:1;stroke-linecap:round;stroke-linejoin:bevel; fill:#000000;fill-opacity:0.00; stroke:#000000; stroke-opacity:1.00;">
  <path d="M 510 460 L 510 679 L 325 679" shape-rendering="auto"/>
  <path d="M 340 673 L 325 679 L 340 685" shape-rendering="auto"/>
</g>
<g style="stroke-width:2;stroke-linecap:round;stroke-linejoin:bevel; fill:#000000;fill-opacity:0.00; stroke:#69738C; stroke-opacity:1.00;">
  <path d="M 560 622 L 516 622 A 6.00 -6.00 180.00 0 0 504 622 L 426 622 A 6.00 -6.00 180.00 0 0 414 622 L 325 622" shape-rendering="auto"/>
  <path d="M 340 616 L 325 622 L 340 628" shape-rendering="auto"/>
</g>
<g style="stroke-width:1;stroke-linecap:round;stroke-linejoin:bevel; fill:#000000;fill-opacity:0.00; stroke:#000000; stroke-opacity:1.00;">
  <path d="M 560 565 L 516 565 A 6.00 -6.00 180.00 0 0 504 565 L 426 565 A 6.00 -6.00 180.00 0 0 414 565 L 325 565" shape-rendering="auto"/>
  <path d="M 340 559 L 325 565 L 340 571" shape-rendering="auto"/>
  <path d="M 560 710 L 560 508 L 516 508 A 6.00 -6.00 180.00 0 0 504 508 L 426 508 A 6.00 -6.00 180.00 0 0 414 508 L 325 508" shape-rendering="auto"/>
  <path d="M 340 502 L 325 508 L 340 514" shape-rendering="auto"/>
</g>
<g style="stroke-width:1;stroke-linecap:round;stroke-linejoin:bevel; fill:#000000;fill-opacity:1.00; stroke:#000000; stroke-opacity:0.00;">
	<text x="294.00" y="206.00" textLength="23" style="font-family:Calibri; font-weight:700; font-style:normal; font-size:10px; fill:#000000;fill-opacity:1.00; stroke:#000000; stroke-opacity:0.00; stroke-width:0; white-space: pre;" xml:space="preserve" transform="rotate(-0.00 294.00 206.00)">bevat</text>
	<text x="600.00" y="132.00" textLength="23" style="font-family:Calibri; font-weight:700; font-style:normal; font-size:10px; fill:#000000;fill-opacity:1.00; stroke:#000000; stroke-opacity:0.00; stroke-width:0; white-space: pre;" xml:space="preserve" transform="rotate(-0.00 600.00 132.00)">bevat</text>
	<text x="477.00" y="699.00" textLength="23" style="font-family:Calibri; font-weight:700; font-style:normal; font-size:10px; fill:#000000;fill-opacity:1.00; stroke:#000000; stroke-opacity:0.00; stroke-width:0; white-space: pre;" xml:space="preserve" transform="rotate(-0.00 477.00 699.00)">bevat</text>
	<text x="425.00" y="321.00" textLength="23" style="font-family:Calibri; font-weight:0; font-style:normal; font-size:10px; fill:#000000;fill-opacity:1.00; stroke:#000000; stroke-opacity:0.00; stroke-width:0; white-space: pre;" xml:space="preserve" transform="rotate(-0.00 425.00 321.00)">bevat</text>
	<text x="805.00" y="259.00" textLength="23" style="font-family:Calibri; font-weight:700; font-style:normal; font-size:10px; fill:#000000;fill-opacity:1.00; stroke:#000000; stroke-opacity:0.00; stroke-width:0; white-space: pre;" xml:space="preserve" transform="rotate(-0.00 805.00 259.00)">bevat</text>
	<text x="400.00" y="132.00" textLength="23" style="font-family:Calibri; font-weight:700; font-style:normal; font-size:10px; fill:#000000;fill-opacity:1.00; stroke:#000000; stroke-opacity:0.00; stroke-width:0; white-space: pre;" xml:space="preserve" transform="rotate(-0.00 400.00 132.00)">bevat</text>
	<text x="665.00" y="230.00" textLength="23" style="font-family:Calibri; font-weight:700; font-style:normal; font-size:10px; fill:#000000;fill-opacity:1.00; stroke:#000000; stroke-opacity:0.00; stroke-width:0; white-space: pre;" xml:space="preserve" transform="rotate(-0.00 665.00 230.00)">bevat</text>
	<text x="512.00" y="484.00" textLength="23" style="font-family:Calibri; font-weight:700; font-style:normal; font-size:10px; fill:#000000;fill-opacity:1.00; stroke:#000000; stroke-opacity:0.00; stroke-width:0; white-space: pre;" xml:space="preserve" transform="rotate(-0.00 512.00 484.00)">bevat</text>
	<text x="102.00" y="261.00" textLength="23" style="font-family:Calibri; font-weight:700; font-style:normal; font-size:10px; fill:#000000;fill-opacity:1.00; stroke:#000000; stroke-opacity:0.00; stroke-width:0; white-space: pre;" xml:space="preserve" transform="rotate(-0.00 102.00 261.00)">bevat</text>
	<text x="544.00" y="276.00" textLength="23" style="font-family:Calibri; font-weight:0; font-style:normal; font-size:10px; fill:#000000;fill-opacity:1.00; stroke:#000000; stroke-opacity:0.00; stroke-width:0; white-space: pre;" xml:space="preserve" transform="rotate(-0.00 544.00 276.00)">bevat</text>
</g>
</svg>
